# xmcd
#
# Track frame offsets: 
#        150
#        15902
#        28607
#        42711
#        56844
#        77814
#        99260
#        112070
#        133374
#        147466
#        169893
#        193861
#        206875
#        234178
#
# Disc length: 3172 seconds
#
# Revision: 1
# Processed by: cddbd v1.5.2PL0 Copyright (c) Steve Scherf et al.
# Submitted via: ExactAudioCopy v1.0b4
#
DISCID=cd0c620e
DTITLE=Paul Thorn - Don't Let The Devil Ride
DYEAR=2018
DGENRE=Blues
TTITLE0=Come On Let's Go
TTITLE1=The Half Has Never Been Told
TTITLE2=You Got To Move
TTITLE3=Keep Holding On
TTITLE4=He's A Battle Axe
TTITLE5=Something On My Mind
TTITLE6=Soon I Will Be Done
TTITLE7=One More River
TTITLE8=He'll Make A Way
TTITLE9=Dont Let The Devil Ride
TTITLE10=What Should I do?
TTITLE11=Jesus Gonna Make Up My Dyin' Bed
TTITLE12=Love Train
TTITLE13=The Get Back
EXTD=
EXTT0=
EXTT1=
EXTT2=
EXTT3=
EXTT4=
EXTT5=
EXTT6=
EXTT7=
EXTT8=
EXTT9=
EXTT10=
EXTT11=
EXTT12=
EXTT13=
PLAYORDER=
